# xmcd
#
# Track frame offsets:
#	150
#	19785
#	34045
#	53689
#	70540
#	88262
#	106557
#	122057
#	141870
#	161505
#	175770
#	195377
#	212240
#	229907
#	248207
#	263697
#
# Disc length: 3780 seconds
#
# Revision: 1
# Processed by: cddbd v1.5.1PL0 Copyright (c) Steve Scherf et al.
# Submitted via: audiograbber 1.83.01
#
DISCID=d00ec210
DTITLE=Sound Choice - Sc3083
DYEAR=2000
DGENRE=Country
TTITLE0=Kershaw, Sammy - Honky Tonk America
TTITLE1=Daniels, Clint - A Fool's Progress
TTITLE2=Sharp, Kevin - If She Only Knew
TTITLE3=Wariner, Steve - Road Trippin'
TTITLE4=Dean, Billy - Real Man
TTITLE5=Brooks and Dunn - How Long Gone
TTITLE6=Stockton, Shane - Gonna Have To Fall
TTITLE7=Mavericks, The - Dance The Night Away
TTITLE8=Kershaw, Sammy - Honky Tonk America (Vocals On Right Channel Only)
TTITLE9=Daniels, Clint - A Fool's Progress (Vocals On Right Channel Only)
TTITLE10=Sharp, Kevin - If She Only Knew (Vocals On Right Channel Only)
TTITLE11=Wariner, Steve - Road Trippin' (Vocals On Right Channel Only)
TTITLE12=Dean, Billy - Real Man (Vocals On Right Channel Only)
TTITLE13=Brooks and Dunn - How Long Gone (Vocals On Right Channel Only)
TTITLE14=Stockton, Shane - Gonna Have To Fall (Vocals On Right Channel Only)
TTITLE15=Mavericks, The - Dance The Night Away (Vocals On Right Channel Only)
EXTD=
EXTT0=
EXTT1=
EXTT2=
EXTT3=
EXTT4=
EXTT5=
EXTT6=
EXTT7=
EXTT8=
EXTT9=
EXTT10=
EXTT11=
EXTT12=
EXTT13=
EXTT14=
EXTT15=
PLAYORDER=
